<svg xmlns="http://www.w3.org/2000/svg" viewBox="0 0 200 200"><defs><style>.cls-1{fill:#fbff15;}.cls-2{fill:none;stroke-width:0.25px;}.cls-2,.cls-3{stroke:#000;stroke-miterlimit:10;}</style></defs><title>Fichier 3</title><g id="Calque_2" data-name="Calque 2"><g id="Calque_20" data-name="Calque 20"><circle class="cls-1" cx="100" cy="100" r="100"/><g id="Calque_21" data-name="Calque 21"><g id="Calque_24" data-name="Calque 24"><path class="cls-2" d="M22,109.33a7.64,7.64,0,0,0,.65,4.7"/></g></g><g id="Calque_22" data-name="Calque 22"><circle class="cls-3" cx="26.06" cy="125" r="18.25"/><circle class="cls-3" cx="178.69" cy="123.65" r="18.25"/></g><path d="M197.25,76.62l-.31-.19a109.18,109.18,0,0,1-14.39-11.06,1.34,1.34,0,0,1-.12-1.83,3.79,3.79,0,0,0,.83-1.65c-.83-.42-3.41-.46-5.76-.55C122.79,52.68,83.15,56,61.37,73.49A53.9,53.9,0,0,1,41.65,83.77C22.43,87.27,7.48,90.86.14,94.65.05,96.42,0,98.2,0,100a100.06,100.06,0,0,0,4.39,29.39l.37,0a1.66,1.66,0,0,0,1.63-2.26c-8.68-24,37.79-39.86,42.83,3.06,17.81-1,63.57-1.86,106-2.71a5.14,5.14,0,0,0,1.24-3.56c3-24.87,36.57-28.31,42.07-6.89a100.61,100.61,0,0,0-1.29-40.44Zm-88.3,7L64.08,87.45c3.23-2,4.53-4.6,1.7-8.65l.51-2.12c8-5.56,16.73-10.81,31.19-13.56,8.28-1.6,16.21-3,15.85.93Zm63-4.16-51.31,3.39,1.47-18.65c.9-1.89,2.07-3.07,3.73-3,14.4,0,28.49.07,36,3.08,5.09,3.41,9.87,6.86,10.77,10.93Z"/></g></g></svg>