<svg xmlns="http://www.w3.org/2000/svg" viewBox="0 0 200 200"><defs><style>.cls-1{fill:#13597f;}.cls-2{fill:none;stroke-width:0.25px;}.cls-2,.cls-3{stroke:#000;stroke-miterlimit:10;}.cls-4{fill:#f9f9f9;}.cls-5{fill:#0071bf;}</style></defs><title>Fichier 2</title><g id="Calque_2" data-name="Calque 2"><g id="Calque_20" data-name="Calque 20"><circle class="cls-1" cx="100" cy="100" r="100"/><g id="Calque_21" data-name="Calque 21"><g id="Calque_24" data-name="Calque 24"><path class="cls-2" d="M22,109.33a7.64,7.64,0,0,0,.65,4.7"/></g></g><g id="Calque_22" data-name="Calque 22"><circle class="cls-3" cx="47.34" cy="115.69" r="13.46"/><circle class="cls-3" cx="159.88" cy="114.69" r="13.46"/></g><g id="Glasses"><path d="M181.5,108.29a33.07,33.07,0,0,0,.38-8.08,11.34,11.34,0,0,1-2.94-5.65c.7-1.5.52-3.83.23-6.27a1.38,1.38,0,0,0-.5-1.54c-.16-3.32-2.62-5.18-5.34-6.87a80.61,80.61,0,0,1-10.6-8.16,1,1,0,0,1-.09-1.35,2.67,2.67,0,0,0,.61-1.21,17,17,0,0,0-4.25-.41c-40.34-6.38-69.57-3.94-85.62,9a39.83,39.83,0,0,1-14.55,7.58c-19.56,3.56-33.13,7.26-34.2,11.27a7.52,7.52,0,0,0-1.07,5.08,4.24,4.24,0,0,0-1.9,2.19,36.59,36.59,0,0,0,.29,5.36c2,0,2.79,1.92,2.52,5.31-.33.3-1,.15-1.76-.17.45,2.4,2.4,4.28,8.92,4.62a1.24,1.24,0,0,0,1.21-1.67c-6.4-17.66,27.86-29.39,31.58,2.26,13.13-.76,46.87-1.37,78.16-2a3.81,3.81,0,0,0,.92-2.62c2.46-20.42,32.88-21.25,31.54,1a7.52,7.52,0,0,1,3.54-.94,15.89,15.89,0,0,0,3.48-4.31A4.19,4.19,0,0,1,181.5,108.29Zm-73-23.09L75.38,88c2.37-1.45,3.33-3.39,1.25-6.37L77,80.06c5.9-4.1,12.34-8,23-10,6.11-1.18,12-2.19,11.69.69Zm46.42-3.07L117,84.63l1.09-13.75c.66-1.4,1.52-2.27,2.75-2.21,10.61,0,21,0,26.56,2.27,3.75,2.51,7.27,5.06,7.94,8.06Z"/></g><g id="Calque_26" data-name="Calque 26"><circle class="cls-4" cx="112.39" cy="101.4" r="14.36"/><circle class="cls-5" cx="109.22" cy="91.98" r="2.22"/><path class="cls-5" d="M107.65,95.72l1.39,7.35a.94.94,0,0,0,.88.69l6.06-.11c1.47,2.36,2.89,5.08,3.73,6a1.86,1.86,0,0,0,.86-.12c1.16-.51,2.37-1,2.12-1.78s-.66-.94-1.17-.71l-1.13.53-3-5.16c-.27-.43-.55-.66-.85-.55l-6,0-.22-1.23,4.27,0a1.09,1.09,0,0,0,.9-.44.66.66,0,0,0,0-.86,1.23,1.23,0,0,0-1-.43l-4.43,0-.72-3.24a1.07,1.07,0,0,0-.59-.76A.79.79,0,0,0,107.65,95.72Z"/><path class="cls-5" d="M107.39,98.64l.36,1.55c-5.74,4.74,2.76,15.56,9,6l.81,1.68C111.43,117.06,98.44,106.46,107.39,98.64Z"/></g></g></g></svg>