<svg xmlns="http://www.w3.org/2000/svg" viewBox="0 0 200 200"><defs><style>.cls-1{fill:#ffcdaa;}.cls-2{fill:none;stroke-width:0.25px;}.cls-2,.cls-3{stroke:#000;stroke-miterlimit:10;}</style></defs><title>Fichier 4</title><g id="Calque_2" data-name="Calque 2"><g id="Calque_20" data-name="Calque 20"><circle class="cls-1" cx="100" cy="100" r="100"/><g id="Calque_21" data-name="Calque 21"><g id="Calque_24" data-name="Calque 24"><path class="cls-2" d="M22,109.33a7.64,7.64,0,0,0,.65,4.7"/></g></g><g id="Calque_22" data-name="Calque 22"><circle class="cls-3" cx="67.99" cy="110.82" r="7.9"/><circle class="cls-3" cx="134.07" cy="110.24" r="7.9"/></g><g id="Glasses"><path d="M146.76,106.48a19.68,19.68,0,0,0,.22-4.75,6.71,6.71,0,0,1-1.73-3.31,7.44,7.44,0,0,0,.14-3.68.81.81,0,0,0-.3-.91c-.09-2-1.53-3-3.13-4A46.52,46.52,0,0,1,135.74,85a.58.58,0,0,1-.06-.8,1.46,1.46,0,0,0,.36-.71,10,10,0,0,0-2.49-.24C109.86,79.52,92.7,81,83.28,88.52A23.63,23.63,0,0,1,74.74,93c-11.49,2.08-19.45,4.26-20.09,6.61a4.42,4.42,0,0,0-.62,3,2.52,2.52,0,0,0-1.12,1.29,22.23,22.23,0,0,0,.18,3.14c1.19,0,1.63,1.13,1.47,3.12-.19.18-.58.09-1-.09.26,1.4,1.41,2.51,5.24,2.7a.72.72,0,0,0,.71-1C55.72,101.39,75.84,94.5,78,113.08c7.71-.44,27.52-.8,45.89-1.17a2.29,2.29,0,0,0,.54-1.54c1.44-12,19.3-12.48,18.52.59a4.34,4.34,0,0,1,2.08-.55,9.31,9.31,0,0,0,2-2.54A2.42,2.42,0,0,1,146.76,106.48ZM103.87,92.92,84.45,94.57c1.4-.86,2-2,.73-3.75l.22-.91A32.62,32.62,0,0,1,98.91,84c3.58-.69,7-1.29,6.86.41Zm27.26-1.8-22.22,1.46.64-8.07c.39-.82.9-1.33,1.61-1.3,6.24,0,12.34,0,15.6,1.34,2.2,1.47,4.27,3,4.66,4.73Z"/></g></g></g></svg>